<svg width="137" height="64" viewBox="0 0 137 64" fill="none" xmlns="http://www.w3.org/2000/svg">
<path d="M15.12 47.65H21.98C22.2279 47.6503 22.4754 47.6303 22.72 47.59C23.1053 47.5112 23.4492 47.2957 23.6881 46.9832C23.927 46.6708 24.0449 46.2825 24.02 45.89C23.954 45.1077 23.6776 44.3579 23.22 43.72C22.69 42.89 22.13 42.07 21.6 41.23C21.07 40.39 20.38 39.3 19.77 38.33C19.5588 37.9975 19.2611 37.7287 18.9087 37.5526C18.5564 37.3764 18.1628 37.2995 17.77 37.33C15.16 37.33 12.55 37.33 9.94002 37.33H3.94002C3.35002 37.33 3.28002 37.38 3.37002 37.94C3.4586 38.5796 3.58212 39.2139 3.74002 39.84C3.88002 40.39 4.09002 40.92 4.28002 41.45C4.50774 42.1957 4.78846 42.9243 5.12002 43.63C5.81002 44.89 6.61002 46.1 7.36002 47.33C7.42589 47.4698 7.53616 47.5838 7.67363 47.6544C7.8111 47.7249 7.96806 47.748 8.12002 47.72C8.36627 47.6998 8.61376 47.6998 8.86002 47.72L15.12 47.65ZM9.94002 49.95C9.90325 49.9976 9.86984 50.0478 9.84002 50.1C9.95185 50.2812 10.0754 50.4549 10.21 50.62C10.91 51.37 11.64 52.09 12.32 52.86C13.26 53.86 14.24 54.86 15.13 56.01C15.9035 56.9265 16.5279 57.9592 16.98 59.07C17.09 59.37 17.23 59.66 17.33 59.97C17.3592 60.1198 17.4453 60.2524 17.5703 60.3401C17.6952 60.4277 17.8492 60.4635 18 60.44C18.55 60.44 19.1 60.44 19.66 60.44C23.94 60.44 28.23 60.44 32.52 60.44C32.7837 60.4563 33.0463 60.3936 33.2743 60.2601C33.5023 60.1265 33.6853 59.928 33.8 59.69C33.9534 59.4486 34.0495 59.1752 34.0807 58.8909C34.1119 58.6066 34.0774 58.3189 33.98 58.05C33.89 57.82 33.79 57.59 33.68 57.37C33.1344 56.3863 32.462 55.4786 31.68 54.67C31.07 53.92 30.41 53.2 29.81 52.44C29.3387 51.8735 28.7939 51.3724 28.19 50.95C27.122 50.2285 25.8468 49.8772 24.56 49.95H9.94002ZM15.94 63.19C15.77 62.64 15.61 62.14 15.44 61.64C14.9844 60.3466 14.3077 59.142 13.44 58.08C12.319 56.6686 11.1063 55.3324 9.81002 54.08C9.32002 53.6 8.87002 53.08 8.41002 52.57C7.95002 52.06 7.33002 51.5 6.87002 50.89C6.06002 49.89 5.29002 48.8 4.51002 47.74C4.06002 47.13 3.65002 46.49 3.22002 45.87C3.15423 45.7736 3.09413 45.6734 3.04002 45.57C1.58007 42.7715 0.683148 39.7138 0.400017 36.57C0.400017 36.06 0.400017 35.57 0.330017 34.97C0.550017 34.97 0.790018 34.91 1.03002 34.91C5.54002 34.91 10.03 34.91 14.58 34.91H20.41C20.7903 34.915 21.1637 35.0123 21.4981 35.1935C21.8326 35.3746 22.118 35.6342 22.33 35.95C22.7408 36.4989 23.1054 37.0809 23.42 37.69C23.96 38.69 24.42 39.69 25 40.69C25.37 41.37 25.85 42 26.25 42.69C26.52 43.15 26.76 43.63 26.99 44.1C27.22 44.57 27.27 44.77 27.42 45.1C27.6425 45.5273 27.7032 46.0204 27.5912 46.4889C27.4791 46.9574 27.2017 47.3697 26.81 47.65C26.71 47.73 26.62 47.82 26.45 47.98L26.96 48.04C27.47 48.09 27.96 48.09 28.49 48.19C29.8123 48.5249 30.9867 49.2879 31.83 50.36C32.7 51.36 33.53 52.36 34.3 53.36C35.07 54.36 35.81 55.55 36.55 56.66C36.8338 57.0752 37.0942 57.5058 37.33 57.95C37.9928 59.0523 38.2773 60.3411 38.14 61.62C38.0733 62.058 37.8703 62.4638 37.56 62.78C37.4337 62.917 37.2783 63.024 37.1053 63.0932C36.9323 63.1624 36.746 63.1921 36.56 63.18C31.44 63.18 26.3133 63.18 21.18 63.18H15.97L15.94 63.19Z" stroke="#221F20" stroke-width="0.29" stroke-miterlimit="10"/>
<path d="M93.76 56.87C93.76 56.76 93.76 56.62 93.76 56.54C93.555 56.2026 93.4159 55.8293 93.35 55.44C93.165 54.8197 92.9029 54.2251 92.57 53.67C92.03 52.82 91.4 52.03 90.81 51.22C90.6506 51.0021 90.4769 50.7949 90.29 50.6C89.09 49.3267 87.8834 48.06 86.67 46.8C85.6721 45.7305 84.7561 44.5872 83.93 43.38C83.1338 42.091 82.464 40.7279 81.93 39.31C81.7846 38.9385 81.6643 38.5577 81.57 38.17L80.82 35.53C80.82 35.37 80.76 35.21 80.71 35H83.49C83.5239 35.1756 83.5673 35.3492 83.62 35.52C83.8 36.16 83.95 36.81 84.19 37.43C84.53 38.31 84.92 39.19 85.34 40.04C85.6089 40.5441 85.9129 41.0287 86.25 41.49C86.78 42.26 87.31 43.02 87.87 43.77C88.6149 44.7548 89.4268 45.687 90.3 46.56C91.44 47.7133 92.5467 48.8933 93.62 50.1C94.0266 50.6258 94.3943 51.1806 94.72 51.76C95.6388 53.3401 96.3799 55.017 96.93 56.76C97.5605 58.7697 97.9466 60.848 98.08 62.95C98.0878 63.0465 98.0878 63.1435 98.08 63.24C97.47 63.24 96.87 63.24 96.27 63.24H94.47C94.4061 63.125 94.3526 63.0045 94.31 62.88C94.1345 62.1709 93.844 61.4952 93.45 60.88C93.1049 60.3349 92.804 59.7631 92.55 59.17C92.1636 58.4463 91.6486 57.799 91.03 57.26C90.03 56.26 89.03 55.26 87.91 54.32C87.0631 53.6481 86.1746 53.0302 85.25 52.47C84.32 51.88 83.35 51.34 82.39 50.8C81.15 50.1 79.88 49.44 78.64 48.74C77.85 48.29 77.09 47.74 76.3 47.32C75.83 47.03 75.3 46.79 74.87 46.49C73.87 45.81 72.87 45.13 71.87 44.41C70.87 43.69 69.87 42.89 68.95 42.12C68.8363 42.0504 68.7321 41.9664 68.64 41.87C67.73 40.7 66.46 39.87 65.59 38.64C65.59 38.64 65.5 38.59 65.39 38.52C65.39 38.67 65.39 38.78 65.39 38.86C65.61 39.26 65.84 39.65 66.08 40.03C66.1757 40.1502 66.2626 40.2772 66.34 40.41C66.8298 41.3347 67.4683 42.1726 68.23 42.89C68.55 43.24 68.84 43.62 69.16 43.97C69.8 44.68 70.47 45.36 71.08 46.09C71.69 46.82 72.47 47.85 73.08 48.76C73.9334 49.96 74.7567 51.1733 75.55 52.4C75.93 52.97 76.23 53.58 76.55 54.17C76.75 54.54 76.93 54.92 77.14 55.28C77.7794 56.4261 78.2381 57.664 78.5 58.95C78.8057 60.1126 79.0033 61.301 79.09 62.5C79.09 62.72 79.09 62.95 79.09 63.22H76.27C76.2595 63.0402 76.2595 62.8599 76.27 62.68C76.2776 60.8463 75.8922 59.0323 75.14 57.36C74.61 56.16 74.08 54.96 73.49 53.79C72.8661 52.5037 72.0979 51.2926 71.2 50.18C70.25 49.01 69.23 47.95 68.33 46.95C67.62 46.13 66.95 45.28 66.26 44.45C65.57 43.62 64.8 42.74 64.11 41.85C62.9054 40.3587 61.9744 38.6659 61.36 36.85C61.2266 36.254 61.1364 35.649 61.09 35.04C61.204 35.0048 61.3213 34.9813 61.44 34.97C62.96 34.97 64.44 34.97 66.01 34.97C66.1771 34.9503 66.3464 34.9795 66.4973 35.054C66.6481 35.1286 66.7741 35.2453 66.86 35.39C67.53 36.45 68.03 37.5 68.7 38.56C69.1936 39.3236 69.8323 39.9827 70.58 40.5C71.4433 41.2587 72.3553 41.9602 73.31 42.6C74.74 43.5 75.85 44.35 77.23 45.33C77.96 45.85 78.59 46.25 79.28 46.66C80.53 47.42 81.85 47.91 83.09 48.66C83.67 49.03 84.32 49.35 84.9 49.72C85.48 50.09 86.37 50.52 87.05 51C88.05 51.66 88.93 52.36 89.82 53.11C90.71 53.86 91.82 54.87 92.82 55.77C93.0661 56.0329 93.2965 56.3101 93.51 56.6C93.59 56.7 93.66 56.8 93.74 56.89L93.76 56.87Z" stroke="#221F20" stroke-width="0.29" stroke-miterlimit="10"/>
<path d="M56.42 47.61L56 47.02C55.3 46.07 54.55 45.16 53.91 44.17C53.27 43.18 52.62 42.02 52.04 40.95C51.4886 39.9456 50.817 39.0121 50.04 38.17C49.8349 37.9758 49.6065 37.8079 49.36 37.67C48.7402 37.3655 48.0464 37.2441 47.36 37.32H37.88H37.25C36.6519 37.341 36.0839 37.5875 35.66 38.01C35.4458 38.2048 35.3065 38.4685 35.2663 38.7553C35.2262 39.042 35.2876 39.3338 35.44 39.58C35.8562 40.453 36.3168 41.3041 36.82 42.13C37.374 43.022 37.9853 43.8771 38.65 44.69C39.3 45.47 40.1 46.14 40.78 46.91C41.0221 47.1765 41.3217 47.3844 41.6561 47.5178C41.9905 47.6512 42.351 47.7067 42.71 47.68H55.71C55.88 47.65 56.08 47.63 56.42 47.61ZM49.12 63.17H46.38C46.38 63.09 46.29 63.04 46.3 62.99C46.286 62.2061 46.1336 61.4309 45.85 60.7C45.42 59.42 45.04 58.13 44.55 56.87C43.9202 55.1289 42.9856 53.5137 41.79 52.1C40.89 51.1 40.04 50 39.17 48.95C39.0265 48.7684 38.8693 48.5979 38.7 48.44C37.87 47.72 37.11 46.95 36.33 46.15C35.2857 45.0964 34.3292 43.9593 33.47 42.75C32.9474 41.9998 32.4827 41.2108 32.08 40.39C31.8751 39.9347 31.75 39.4476 31.71 38.95C31.6482 38.3053 31.6215 37.6576 31.63 37.01C31.6516 36.3628 31.8993 35.7436 32.33 35.26C32.4179 35.16 32.5277 35.0818 32.6509 35.0315C32.7741 34.9812 32.9073 34.9601 33.04 34.97C34.04 34.97 34.94 34.97 35.9 34.97C40.64 34.97 45.39 34.97 50.13 34.97C50.5622 34.9431 50.9938 35.0318 51.3804 35.2269C51.7671 35.4219 52.0948 35.7164 52.33 36.08C52.9609 36.999 53.5321 37.9577 54.04 38.95C55.1125 41.0111 56.3569 42.978 57.76 44.83C58.8511 46.1737 60.0447 47.4308 61.33 48.59C62.7838 49.8719 64.0645 51.3375 65.14 52.95C65.77 53.95 66.38 54.95 66.98 55.95C68.2075 57.9797 68.8959 60.2895 68.98 62.66C68.98 62.84 68.98 63.03 68.98 63.26H65.98C65.936 63.0159 65.9159 62.768 65.92 62.52C65.9662 61.353 65.715 60.1933 65.19 59.15C64.92 58.48 64.6 57.84 64.28 57.15C63.89 56.34 63.51 55.54 63.09 54.75C62.9234 54.4501 62.7256 54.1685 62.5 53.91C61.8 53.08 61.08 52.26 60.36 51.45C59.97 51.01 59.56 50.59 59.14 50.17C59.0411 50.0923 58.9241 50.0407 58.8 50.02C58.6669 50.01 58.5332 50.01 58.4 50.02H44.33C44.1547 50.032 43.9808 50.0587 43.81 50.1C43.7728 50.1612 43.7394 50.2247 43.71 50.29C43.8127 50.3306 43.9129 50.3774 44.01 50.43C44.8534 51.0027 45.516 51.804 45.92 52.74C46.51 54.03 47.06 55.36 47.54 56.74C48.02 58.12 48.39 59.34 48.76 60.66C48.9322 61.3593 49.069 62.0669 49.17 62.78C49.1597 62.9107 49.1431 63.0409 49.12 63.17Z" stroke="#221F20" stroke-width="0.29" stroke-miterlimit="10"/>
<path d="M90.78 34.89L93.5 34.73C93.7 35.23 93.88 35.67 94.04 36.11C94.627 37.5573 95.3293 38.9551 96.14 40.29C96.5561 40.9955 97.0311 41.6646 97.56 42.29C98.7197 43.7585 99.9793 45.1451 101.33 46.44C101.567 46.6684 101.851 46.8435 102.161 46.9539C102.471 47.0642 102.802 47.1072 103.13 47.08C104.13 47.08 105.03 46.98 105.98 46.96C106.93 46.94 108.07 46.96 109.12 46.96C110.17 46.96 110.94 46.86 111.85 46.75C112.368 46.6804 112.845 46.433 113.2 46.05C113.401 45.8167 113.531 45.531 113.575 45.2264C113.62 44.9218 113.576 44.6108 113.45 44.33C113.1 43.25 112.72 42.17 112.3 41.11C111.74 39.67 111.11 38.26 110.52 36.84C110.275 36.2631 110.199 35.6285 110.3 35.01H113.33C113.33 35.26 113.33 35.51 113.33 35.77C113.353 36.5914 113.557 37.3976 113.93 38.13C114.38 39.05 114.73 40.02 115.18 40.94C115.623 41.787 115.975 42.6787 116.23 43.6C116.471 44.2857 116.499 45.0282 116.31 45.73C116.154 46.1062 115.977 46.4734 115.78 46.83C115.84 46.83 115.93 46.83 116.03 46.88C116.96 46.96 117.89 47.02 118.81 47.11C118.981 47.1349 119.143 47.2038 119.28 47.31C120.16 47.8667 120.96 48.5394 121.66 49.31C122.208 50.0372 122.718 50.7915 123.19 51.57C123.797 52.53 124.397 53.5 124.99 54.48C125.43 55.22 125.83 55.97 126.25 56.72C126.52 57.2 126.79 57.72 127.04 58.16C127.476 59.0938 127.783 60.083 127.95 61.1C128.09 61.75 128.12 62.42 128.2 63.1C127.275 63.2327 126.335 63.2327 125.41 63.1C125.41 62.98 125.41 62.86 125.41 62.73C125.387 62.1007 125.262 61.4792 125.04 60.89C124.6 59.76 124.22 58.6 123.73 57.48C123.149 56.1133 122.407 54.8208 121.52 53.63C121.03 52.98 120.52 52.31 120.03 51.63C119.449 50.7933 118.58 50.1991 117.59 49.96C117.33 49.9086 117.065 49.8818 116.8 49.88H104.62C104.724 50.0432 104.838 50.2002 104.96 50.35C105.6 51.1245 106.101 52.0042 106.44 52.95C106.66 53.48 106.9 53.95 107.12 54.52C107.681 55.7077 108.127 56.9468 108.45 58.22C108.768 59.7889 108.892 61.3909 108.82 62.99C108.803 63.0396 108.779 63.0867 108.75 63.13H105.75C105.75 62.62 105.75 62.13 105.75 61.65C105.866 60.123 105.655 58.5888 105.13 57.15C104.415 55.1504 103.476 53.2382 102.33 51.45C101.714 50.5772 101.046 49.7423 100.33 48.95C99.9 48.44 99.39 47.95 98.96 47.49C98.2791 46.7475 97.5545 46.0463 96.79 45.39C96.3736 44.9973 95.9921 44.569 95.65 44.11C94.76 42.88 93.9 41.63 93.04 40.37C92.0701 38.9321 91.3437 37.3441 90.89 35.67C90.89 35.54 90.83 35.41 90.81 35.28C90.79 35.15 90.8 35.09 90.78 34.89Z" stroke="#221F20" stroke-width="0.29" stroke-miterlimit="10"/>
<path d="M129.41 2.35999H99.91C99.8699 1.59051 99.8699 0.819467 99.91 0.0499878H129.42C129.55 0.814501 129.55 1.59548 129.42 2.35999" fill="#221F20"/>
<path d="M114.33 2.95001C114.42 3.09001 114.47 3.19001 114.54 3.28001L115.54 4.64001C115.739 4.87004 115.846 5.16576 115.84 5.47001C115.84 11.6433 115.84 17.8167 115.84 23.99V27.99C115.84 28.2 115.84 28.4 115.84 28.63H112.97C112.97 28.46 112.97 28.29 112.97 28.13C112.97 23.4033 112.97 18.6767 112.97 13.95C112.97 11.11 112.97 8.28001 112.97 5.44001C112.942 5.08256 113.045 4.72722 113.26 4.44001L114.33 2.95001Z" fill="#221F20"/>
<path d="M30.41 26.16V28.54C29.97 28.67 4.26999 28.74 2.86999 28.61C2.7476 27.7979 2.7476 26.9721 2.86999 26.16H30.41Z" fill="#221F20"/>
<path d="M36.6 25.78H33.8V2.78C34.729 2.65353 35.6709 2.65353 36.6 2.78V25.78Z" fill="#221F20"/>
<path d="M69.52 28.62H67.15C67.03 28.18 67.01 3.34 67.15 2.72H69.54L69.52 28.62Z" fill="#221F20"/>
<path d="M36.98 28.61V26.23C37.4 26.1 62.18 26.08 62.81 26.23C62.8203 26.3565 62.8203 26.4836 62.81 26.61C62.81 27.27 62.81 27.93 62.81 28.61H36.98Z" fill="#221F20"/>
<path d="M0 0.0400085H2.33C2.46 0.500009 2.5 24.97 2.33 25.77H0V0.0400085Z" fill="#221F20"/>
<path d="M95.65 0.0400009V2.3C95.22 2.41 70.93 2.45 69.94 2.3C69.8378 1.53782 69.811 0.767433 69.86 0L95.65 0.0400009Z" fill="#221F20"/>
<path d="M62.83 0.0599867V2.34999H36.98V0.109986C37.42 -0.0100141 61.84 -0.0500141 62.83 0.109986" fill="#221F20"/>
<path d="M37.83 13.95C38.08 13.65 38.42 13.27 38.73 12.86C38.7822 12.7816 38.8539 12.7182 38.9381 12.6762C39.0223 12.6341 39.116 12.6147 39.21 12.62H59.14C59.2731 13.4849 59.2731 14.3651 59.14 15.23H58.71H39.44C39.2898 15.2448 39.1383 15.2225 38.9988 15.1649C38.8593 15.1074 38.7361 15.0164 38.64 14.9C38.38 14.59 38.13 14.28 37.83 13.9" fill="#221F20"/>
<path d="M91.6 12.62V15.17C91.4786 15.2005 91.3548 15.2206 91.23 15.23H72.72C72.5327 15.2366 72.3468 15.1953 72.18 15.11C71.66 14.79 71.18 14.44 70.66 14.11C70.6 14.11 70.57 14 70.49 13.9C71.0657 13.4246 71.6813 12.9997 72.33 12.63C72.4615 12.5989 72.5985 12.5989 72.73 12.63H91.12H91.6" fill="#221F20"/>
<path d="M69.62 62.95C69.52 62.12 69.43 61.3 69.32 60.47C69.1452 59.2841 68.7841 58.1332 68.25 57.06C67.2416 54.9863 66.0111 53.0281 64.58 51.22C63.9902 50.5196 63.3626 49.852 62.7 49.22C61.46 47.96 60.15 46.77 58.96 45.45C57.9725 44.3431 57.1075 43.1328 56.38 41.84C55.5 40.28 54.64 38.71 53.7 37.19C53.2884 36.388 52.7402 35.6638 52.08 35.05C52.7063 34.9254 53.3564 35.0243 53.9173 35.3294C54.4782 35.6345 54.9144 36.1266 55.15 36.72C55.6744 37.8844 56.3143 38.9933 57.06 40.03C57.42 40.63 57.78 41.24 58.16 41.83C58.54 42.42 58.92 42.95 59.33 43.47C60.0585 44.4434 60.89 45.3352 61.81 46.13C63.09 47.38 64.43 48.58 65.64 49.89C66.3575 50.7617 67.0252 51.6731 67.64 52.62C68.7502 54.3079 69.5683 56.1706 70.06 58.13C70.17 58.5 70.34 58.85 70.43 59.21C70.6 59.83 70.74 60.46 70.86 61.1C70.8875 61.2669 70.8519 61.438 70.76 61.58C70.46 62.06 70.12 62.52 69.76 62.98L69.62 62.95Z" stroke="#221F20" stroke-width="0.29" stroke-miterlimit="10"/>
<path d="M22.19 35.02C22.7424 34.8781 23.3265 34.9286 23.8464 35.1631C24.3662 35.3976 24.7907 35.8021 25.05 36.31C25.41 36.94 25.7 37.6 26.05 38.24C26.85 39.77 27.67 41.3 28.49 42.83C28.86 43.53 29.27 44.22 29.62 44.93C29.7708 45.2445 29.8655 45.5829 29.9 45.93C29.9902 46.4571 29.8718 46.9986 29.57 47.44C29.75 47.44 29.91 47.44 30.07 47.44C30.5845 47.4157 31.0973 47.5168 31.5641 47.7345C32.031 47.9523 32.4379 48.2802 32.75 48.69C33.44 49.57 34.24 50.37 34.96 51.23C35.91 52.36 35.37 51.75 36.68 53.43C36.84 53.64 37 53.86 37.17 54.06C38.3872 55.4299 39.24 57.084 39.65 58.87C39.6961 59.0564 39.7528 59.2401 39.82 59.42C39.9609 59.8668 40.0025 60.339 39.9421 60.8037C39.8816 61.2683 39.7205 61.7141 39.47 62.11C39.1859 62.501 38.7876 62.7945 38.33 62.95C38.3339 62.884 38.3509 62.8194 38.38 62.76C38.6309 62.3418 38.7916 61.8759 38.8519 61.392C38.9121 60.9081 38.8706 60.4169 38.73 59.95C38.65 59.54 38.49 59.14 38.39 58.74C38.1656 58.1325 37.8558 57.5601 37.47 57.04C36.6903 55.7096 35.8217 54.4334 34.87 53.22C34.31 52.46 33.67 51.75 33.04 51.03C32.41 50.31 31.9 49.8 31.33 49.2C30.4426 48.3755 29.2986 47.8812 28.09 47.8H27.7C27.81 47.59 27.89 47.4 27.98 47.22C28.1647 46.8738 28.2613 46.4874 28.2613 46.095C28.2613 45.7026 28.1647 45.3162 27.98 44.97C27.81 44.59 27.68 44.19 27.53 43.8C27.5005 43.6897 27.4603 43.5825 27.41 43.48C26.89 42.66 26.35 41.86 25.84 41.03C25.51 40.5 25.21 39.95 24.92 39.39C24.43 38.47 24 37.51 23.46 36.61C23.0764 36.0494 22.6519 35.518 22.19 35.02V35.02Z" stroke="#221F20" stroke-width="0.29" stroke-miterlimit="10"/>
<path d="M116.67 46.53C116.693 46.4313 116.723 46.3344 116.76 46.24C117.065 45.3111 117.065 44.3089 116.76 43.38C116.348 42.1376 115.836 40.9304 115.23 39.77C114.86 38.97 114.52 38.17 114.23 37.36C113.979 36.6033 113.874 35.8059 113.92 35.01H115.33C115.51 35.58 115.67 36.16 115.88 36.73C116.33 37.96 116.81 39.18 117.28 40.4C117.68 41.4 118.11 42.4 118.49 43.48C118.621 43.8597 118.689 44.2584 118.69 44.66C118.672 45.0633 118.621 45.4646 118.54 45.86C118.62 45.8927 118.704 45.9162 118.79 45.93C119.15 45.93 119.51 45.99 119.87 46.01C120.281 46.0208 120.684 46.1255 121.048 46.3162C121.412 46.5069 121.727 46.7784 121.97 47.11C122.97 48.39 123.97 49.66 124.89 50.99C125.81 52.32 126.74 53.74 127.57 55.17C128.425 56.6339 129.135 58.1779 129.69 59.78C129.931 60.5043 129.999 61.2747 129.89 62.03C129.872 62.1412 129.824 62.2451 129.75 62.33C129.5 62.59 129.24 62.83 128.9 63.16C128.834 62.9163 128.781 62.6693 128.74 62.42C128.645 61.2231 128.396 60.0434 128 58.91C127.79 58.3009 127.518 57.7146 127.19 57.16C126.62 56.16 126.01 55.16 125.41 54.1C124.81 53.04 124.14 51.93 123.46 50.87C123.013 50.1726 122.522 49.5046 121.99 48.87C121.62 48.45 121.1 48.16 120.69 47.76C119.901 47.0271 118.856 46.6323 117.78 46.66C117.4 46.62 117.07 46.56 116.67 46.53Z" stroke="#221F20" stroke-width="0.29" stroke-miterlimit="10"/>
<path d="M84.2 34.95H85.33C85.41 35.15 85.5 35.34 85.56 35.54C85.9795 36.7622 86.5293 37.9356 87.2 39.04C87.9408 40.478 88.7829 41.8615 89.72 43.18C90.28 43.97 90.94 44.69 91.56 45.43C92.56 46.56 93.5 47.67 94.44 48.82C94.799 49.299 95.1328 49.7963 95.44 50.31L96.99 52.57C97.2286 52.8886 97.4457 53.2227 97.64 53.57C98.4658 55.0928 99.1102 56.7071 99.56 58.38C99.7124 59.0399 99.8293 59.7076 99.91 60.38C99.9929 60.895 99.9343 61.4229 99.7406 61.9073C99.5469 62.3916 99.2252 62.8142 98.81 63.13C98.81 62.79 98.7 62.5 98.67 62.22C98.6182 61.3454 98.4808 60.4779 98.26 59.63C98.08 59.02 98.08 58.35 97.89 57.73C97.61 56.81 97.24 55.91 96.89 55C96.77 54.7 96.62 54.41 96.52 54.1C96.138 53.1276 95.6589 52.1963 95.09 51.32C94.3364 50.1102 93.44 48.9955 92.42 48C91.046 46.6829 89.7567 45.2801 88.56 43.8L87.33 41.95C87.14 41.67 86.93 41.4 86.73 41.12C85.8758 39.8207 85.1871 38.4199 84.68 36.95C84.4176 36.3122 84.2556 35.6375 84.2 34.95V34.95Z" stroke="#221F20" stroke-width="0.29" stroke-miterlimit="10"/>
<path d="M67.05 34.85H68.05C68.4 35.32 68.72 35.79 69.05 36.24C70.3144 37.89 71.8495 39.3135 73.59 40.45C74.35 40.91 75.04 41.45 75.78 41.99C77.2128 43.0677 78.735 44.0211 80.33 44.84C80.73 45.02 81.1 45.26 81.48 45.47C82.67 46.15 83.87 46.81 85.04 47.47C85.79 47.92 86.49 48.47 87.22 48.92C87.78 49.28 88.22 49.78 88.83 50.11C89.5554 50.6858 90.225 51.3287 90.83 52.03C91.66 53.18 92.6 53.88 92.95 55.03C93.0167 55.16 93.0671 55.2977 93.1 55.44C92.46 54.87 91.92 54.2 91.3 53.67C90.68 53.14 89.83 52.4 89.06 51.81C88.252 51.1802 87.4072 50.5992 86.53 50.07C85.3634 49.4236 84.2318 48.716 83.14 47.95C82.46 47.47 81.67 47.15 80.96 46.7C79.1731 45.6488 77.4409 44.5073 75.77 43.28C75.11 42.77 74.34 42.4 73.65 41.93C72.96 41.46 72.17 40.87 71.45 40.32C70.99 39.97 70.54 39.62 70.12 39.23C69.8959 38.993 69.7042 38.7274 69.55 38.44C69 37.66 68.15 36.64 67.62 35.85C67.44 35.52 67.27 35.22 67.05 34.85Z" stroke="#221F20" stroke-width="0.29" stroke-miterlimit="10"/>
<path d="M79.76 63.06C79.68 62.93 79.65 62.9 79.65 62.87C79.5254 61.1612 79.2442 59.4674 78.81 57.81C78.69 57.311 78.5121 56.8277 78.28 56.37C77.84 55.37 77.39 54.44 76.87 53.51C76.35 52.58 75.82 51.84 75.26 51.02C74.6 50.02 73.92 49.08 73.26 48.11C72.1978 46.6233 71.0244 45.2193 69.75 43.91C68.9 42.98 68.09 42.02 67.28 41.07C67.1199 40.8826 66.976 40.6818 66.85 40.47C66.85 40.47 66.85 40.47 66.93 40.47C67.1661 40.6943 67.3897 40.9313 67.6 41.18C68.142 41.8469 68.7671 42.4417 69.46 42.95C70.46 43.7 71.33 44.54 72.37 45.31C73.1442 46.0524 73.8659 46.8477 74.53 47.69C75.34 48.69 76.15 49.69 76.87 50.79C77.4028 51.6574 77.8901 52.552 78.33 53.47C78.76 54.32 79.17 55.18 79.57 56.04C80.0525 57.1414 80.3887 58.3013 80.57 59.49C80.6673 60.0896 80.7341 60.6937 80.77 61.3C80.8166 61.5447 80.7914 61.7977 80.6973 62.0284C80.6033 62.2591 80.4444 62.4576 80.24 62.6C80.0628 62.7343 79.9017 62.8887 79.76 63.06Z" stroke="#221F20" stroke-width="0.29" stroke-miterlimit="10"/>
<path d="M94.09 34.76H94.49C94.81 34.67 94.98 34.76 95.09 35.11C95.2 35.46 95.43 35.95 95.62 36.37C96.2745 37.6121 97.0129 38.8082 97.83 39.95C98.33 40.72 98.83 41.46 99.37 42.22C100.192 43.3186 101.169 44.292 102.27 45.11C102.58 45.37 102.89 45.62 103.19 45.89C103.3 45.9915 103.429 46.0702 103.57 46.1216C103.711 46.1731 103.86 46.1963 104.01 46.19C105.61 46.19 107.21 46.19 108.81 46.19H111.9C112.02 46.19 112.15 46.19 112.36 46.19C112.264 46.2833 112.149 46.3548 112.023 46.3997C111.897 46.4445 111.763 46.4617 111.63 46.45C110.46 46.45 109.28 46.53 108.1 46.57L103.53 46.7H103.31C102.999 46.7347 102.683 46.6958 102.39 46.5863C102.096 46.4769 101.833 46.3 101.62 46.07C100.74 45.2 99.94 44.27 99.09 43.37C98.2198 42.3409 97.4054 41.266 96.65 40.15C96.4787 39.8994 96.3281 39.6352 96.2 39.36C95.4151 37.9916 94.7461 36.56 94.2 35.08C94.1583 34.9751 94.1216 34.8683 94.09 34.76Z" stroke="#221F20" stroke-width="0.29" stroke-miterlimit="10"/>
<path d="M105.58 50.29C105.94 50.2649 106.3 50.2649 106.66 50.29C106.884 50.326 107.085 50.448 107.22 50.63C107.584 51.1641 107.918 51.7183 108.22 52.29C108.51 52.85 108.75 53.43 109.01 54C109.096 54.1712 109.169 54.3483 109.23 54.53C109.63 55.8 110.04 57.07 110.41 58.34C110.667 59.161 110.732 60.0299 110.6 60.88C110.406 61.513 110.13 62.1181 109.78 62.68C109.73 62.78 109.58 62.83 109.42 62.95C109.42 62.18 109.35 61.48 109.31 60.79C109.27 60.1 109.31 59.65 109.24 59.08C109.131 58.2468 108.899 57.4345 108.55 56.67C108.03 55.34 107.55 54.01 106.94 52.67C106.56 51.95 106.06 51.15 105.58 50.29Z" stroke="#221F20" stroke-width="0.29" stroke-miterlimit="10"/>
<path d="M49.62 63.12C49.48 62.33 49.4 61.59 49.21 60.88C48.89 59.65 48.52 58.43 48.12 57.22C47.72 56.01 47.4 55.09 46.97 54.06C46.5092 52.7438 45.7689 51.543 44.8 50.54L44.58 50.29C44.8099 50.2077 45.0563 50.182 45.2982 50.2151C45.5402 50.2481 45.7706 50.339 45.97 50.48C46.9482 51.3039 47.7103 52.3544 48.19 53.54C48.6246 54.457 49.0052 55.3986 49.33 56.36C49.7578 57.558 50.0725 58.7934 50.27 60.05C50.27 60.64 50.49 61.21 50.53 61.8C50.5332 62.0871 50.4474 62.3681 50.2845 62.6044C50.1216 62.8408 49.8894 63.0209 49.62 63.12V63.12Z" stroke="#221F20" stroke-width="0.29" stroke-miterlimit="10"/>
<path d="M10.68 50.37C10.9795 50.2509 11.306 50.2168 11.6236 50.2715C11.9413 50.3262 12.2376 50.4676 12.48 50.68C13.6701 51.7183 14.7768 52.8485 15.79 54.06C16.2 54.53 16.63 54.99 17.01 55.49C17.7378 56.3691 18.3279 57.3537 18.76 58.41C18.8118 58.6075 18.9338 58.7794 19.1031 58.8935C19.2724 59.0076 19.4775 59.0561 19.68 59.03C23.01 59.03 26.35 59.03 29.68 59.03C30.94 59.03 31.45 59.03 32.68 59.03H33.57C33.5678 59.1868 33.5334 59.3415 33.4687 59.4844C33.4041 59.6273 33.3106 59.7553 33.1942 59.8604C33.0778 59.9655 32.941 60.0455 32.7923 60.0953C32.6436 60.1452 32.4862 60.1638 32.33 60.15H23.12H18.6H18.06C17.92 59.82 17.81 59.5 17.66 59.15C17.2752 58.3219 16.848 57.5141 16.38 56.73C15.9626 56.1394 15.5013 55.5812 15 55.06C14.31 54.28 13.61 53.51 12.91 52.74C12.37 52.15 11.81 51.58 11.27 51L10.68 50.37Z" stroke="#221F20" stroke-width="0.29" stroke-miterlimit="10"/>
<path d="M3.73002 37.69H5.05002C5.21002 38.23 5.35002 38.69 5.53002 39.18C5.87002 40.18 6.17002 41.25 6.59002 42.25C7.01002 43.25 7.59002 44.11 8.03002 45.04C8.16002 45.29 8.33002 45.52 8.46002 45.78C8.50257 45.8858 8.57808 45.975 8.67536 46.0344C8.77264 46.0939 8.88649 46.1204 9.00002 46.11H12.65H22.83H23.53C23.5025 46.4007 23.3764 46.6732 23.1727 46.8824C22.969 47.0916 22.6999 47.2248 22.41 47.26C22.18 47.26 21.28 47.26 21.07 47.26H11.22C10.22 47.26 9.22002 47.26 8.22002 47.26C8.08127 47.2756 7.94119 47.2461 7.82051 47.1758C7.69984 47.1056 7.605 46.9983 7.55002 46.87C7.03002 45.98 6.55002 45.09 5.93002 44.25C5.40329 43.4199 4.9928 42.5216 4.71002 41.58C4.24441 40.376 3.90916 39.1255 3.71002 37.85C3.72002 37.76 3.74002 37.84 3.73002 37.69Z" stroke="#221F20" stroke-width="0.29" stroke-miterlimit="10"/>
<path d="M55.51 47.22C54.88 47.22 54.88 47.22 54.37 47.22H42.71C42.4549 47.2246 42.2016 47.1783 41.9646 47.0839C41.7277 46.9895 41.5119 46.8488 41.33 46.67C39.7735 45.2051 38.4093 43.5485 37.27 41.74C36.84 41.03 36.46 40.28 36.06 39.55C36.0274 39.4998 36.0006 39.4462 35.98 39.39C35.67 38.54 35.82 38.18 36.74 37.73C36.86 37.95 36.99 38.17 37.1 38.4C37.52 39.28 37.95 40.15 38.33 41.04C38.7676 41.9731 39.3367 42.8385 40.02 43.61C40.65 44.37 41.34 45.08 42.02 45.82C42.1251 45.9288 42.2535 46.0123 42.3955 46.0642C42.5375 46.1162 42.6895 46.1353 42.84 46.12C46.77 46.12 49.95 46.12 53.84 46.12C54.0831 46.0989 54.3277 46.1391 54.5513 46.237C54.7749 46.3348 54.9704 46.4871 55.12 46.68C55.2399 46.8671 55.3701 47.0474 55.51 47.22V47.22Z" stroke="#221F20" stroke-width="0.29" stroke-miterlimit="10"/>
<path d="M129.57 19.95C129.783 20.4663 129.931 21.0071 130.01 21.56C130.224 23.0085 130.67 24.4132 131.33 25.72C131.426 25.9446 131.586 26.136 131.79 26.27C132.367 26.6109 132.965 26.9148 133.58 27.18C134.27 27.46 134.99 27.67 135.69 27.91C135.88 27.98 136.06 28.08 136.37 28.22L135.73 28.42C134.86 28.66 133.98 28.87 133.12 29.14C132.683 29.282 132.261 29.4662 131.86 29.69C131.679 29.7847 131.52 29.9151 131.391 30.0732C131.262 30.2313 131.166 30.414 131.11 30.61C130.67 32.07 130.21 33.52 129.76 34.97C129.76 35.15 129.64 35.32 129.58 35.49H129.47C129.39 35.18 129.3 34.87 129.22 34.55C128.931 33.3094 128.529 32.0978 128.02 30.93C127.833 30.4407 127.479 30.0333 127.02 29.78C125.628 29.074 124.127 28.6075 122.58 28.4C122.34 28.4 122.1 28.31 121.78 28.25C122.016 28.0337 122.306 27.8852 122.62 27.82L124.62 27.28C125.591 27.0009 126.53 26.6187 127.42 26.14C127.621 26.0345 127.785 25.8706 127.89 25.67C128.153 25.1162 128.367 24.5407 128.53 23.95C128.85 22.83 129.11 21.69 129.39 20.56C129.39 20.39 129.49 20.23 129.57 19.97" fill="#221F20"/>
</svg>
